<svg xmlns="http://www.w3.org/2000/svg" width="112" height="83" fill="none"><g fill="#000"><path d="M103.917 77.417c0-2.289 1-3.7 2.398-3.7.72 0 1.379.342 1.859.94v5.198c-.56.792-1.239 1.22-1.979 1.22-1.338 0-2.278-1.37-2.278-3.658Zm1.22 5.583c1.238 0 2.377-.727 3.037-1.925v1.69h3.157c-.4-.835-.479-2.332-.479-3.423V67.235l-3.178.513c.42.792.5 2.29.5 3.444v1.883c-.64-.835-1.559-1.284-2.538-1.284-2.478 0-4.456 2.31-4.456 5.668 0 3.38 1.719 5.54 3.957 5.54m-11.13-.234h3.596c-.36-.792-.48-2.31-.48-3.551v-3.188c.62-1.133 1.4-1.818 2.459-1.818.479 0 .979.086 1.298.214l-.159-2.502c-.18-.086-.52-.15-.86-.15-1.079 0-2.158.92-2.737 2.973V71.92l-3.177.513c.42.813.5 2.31.5 3.444v3.337c0 1.24-.1 2.76-.44 3.55m-6.155-1.625c-1.399 0-2.338-1.348-2.338-3.722 0-2.374.94-3.722 2.298-3.722 1.399 0 2.338 1.348 2.338 3.722 0 2.374-.92 3.722-2.298 3.722Zm-.02 1.86c2.898 0 5.076-2.373 5.076-5.646 0-3.23-2.159-5.562-5.076-5.562-2.897 0-5.075 2.353-5.075 5.626 0 3.251 2.158 5.583 5.075 5.583m-10.77-.236h3.616c-.36-.79-.48-2.31-.48-3.55V73.78h2.319v-1.754h-2.338a39.57 39.57 0 0 1-.04-1.54c0-1.027.42-1.52 1.239-1.52.42 0 .919.13 1.359.365l-.24-2.054A5.211 5.211 0 0 0 80.838 67c-2.078 0-3.337 1.412-3.337 3.786v1.24h-1.699l-.38 1.755h2.08v5.433c0 1.24-.1 2.76-.44 3.55m-4.257.215c.78 0 1.6-.236 2.139-.514l.14-1.711c-.32.15-.78.342-1.22.342-.759 0-1.199-.428-1.199-1.305v-6.01h2.139l.38-1.754h-2.519v-2.888l-2.657.599v2.289h-1.459l.08 1.754h1.379v6.31c0 1.86.979 2.888 2.797 2.888m-11.61-.215h3.598c-.36-.79-.48-2.31-.48-3.55v-3.188c.62-1.133 1.4-1.818 2.458-1.818.48 0 .98.086 1.299.214l-.16-2.502c-.18-.086-.52-.15-.86-.15-1.078 0-2.157.92-2.737 2.973V71.92l-3.177.513c.42.813.5 2.31.5 3.444v3.337c0 1.24-.1 2.76-.44 3.55m-7.893-2.887c0-.706.4-1.262 1.359-1.455l2.098-.47v1.86c-.52.685-1.319 1.306-2.158 1.306-.82 0-1.299-.492-1.299-1.241m.28 3.102c1.339 0 2.498-.92 3.177-2.097.02.663.1 1.455.24 1.882h2.917c-.36-.663-.5-1.839-.5-2.716v-4.235c0-2.524-1.378-4.022-4.096-4.022-1.239 0-2.538.321-3.637.92l-.28 2.14c1.38-.856 2.318-1.156 3.318-1.156 1.279 0 2.038.642 2.038 2.097v.663l-2.678.47c-2.298.407-3.357 1.498-3.357 3.187 0 1.69 1.16 2.867 2.858 2.867m-16.125-.215h3.896c-.4-.834-.5-2.802-.5-4.15v-2.438h5.516v2.439c0 1.347-.12 3.315-.52 4.15h3.916c-.4-.835-.519-2.803-.519-4.15V71.94c0-1.348.12-3.316.52-4.15H45.85c.4.835.52 2.802.52 4.15v2.118h-5.515V71.94c0-1.348.1-3.316.5-4.15h-3.897c.38.835.52 2.802.52 4.15v6.674c0 1.347-.14 3.315-.52 4.15Zm-8.513-9.112c1.08 0 1.879.813 2.078 2.524h-4.116c.2-1.561.92-2.524 2.038-2.524m.56 9.327c1.199 0 2.518-.385 3.317-.984l.24-2.011c-.96.727-2.038 1.112-3.097 1.112-1.719 0-2.858-1.112-3.078-3.208h6.674c.08-3.787-1.798-6.097-4.636-6.097-2.857 0-4.755 2.482-4.755 5.605 0 3.272 2.118 5.583 5.335 5.583Zm-16.166-.215h3.537c-.32-.748-.42-2.288-.42-3.465v-4.32c.54-.685 1.18-1.177 1.959-1.177.9 0 1.598.663 1.598 1.925V79.3c0 1.177-.1 2.717-.42 3.465h3.558c-.34-.79-.46-2.31-.46-3.55v-3.872c0-2.224-1.219-3.55-3.057-3.55-1.38 0-2.458.812-3.177 2.053v-6.61l-3.178.514c.42.79.5 2.288.5 3.443v8.022c0 1.24-.1 2.76-.44 3.55Zm-8.772 0h3.977c-.4-.834-.54-2.802-.54-4.15v-8.748h.62c1.378 0 2.697.15 3.976.834l-.44-2.909H.77l-.439 2.91c1.279-.685 2.678-.835 4.056-.835h.74v8.749c0 1.347-.14 3.315-.56 4.15ZM71.061 56.993l-.255-1.482c-.128-1.44.213-2.796.85-3.728 1.531-2.287 3.403-3.632 3.403-8.598 0-4.406-3.317-7.54-7.358-7.54-.923 0-1.557-.041-2.636-.531l-.011.015c1.585 1.748 1.67 5.178 1.67 5.641h-.032c-1.064-3.304-3.244-5.718-6.816-7.412.17 1.61-.324 3.685-.451 4.193h-.017c0-.042 0-4.744-3.53-6.862l-.978-.593c-.723-.424-.893-.72-1.148-1.822l-1.234-5.379h-2.931l-.004-.018 3.53-1.55c.724-.296 1.276-.677 1.404-1.27-.17.127-.468.297-.978.297-.596 0-1.149-.212-1.489-.72h2.34c.382 0 .68-.297.68-.636v-.886a.382.382 0 0 0-.383-.381h-2.035a.314.314 0 0 0-.314.313v.045c0 .087.058.2.128.252l.242.177a.312.312 0 0 1-.186.565H51.37v-1.034c0-.465.382-.804.808-.804h2.197v-.02c-.384-.217-1.049-.43-1.049-.43.51-.339.893-1.016 1.02-2.033 0 0-1.431.25-1.445.254-.343.089-.792.134-1.094.519l-.78-.835 2.93-.785c1.33-.356 2.762-.934 3.807-1.6 2.592-1.647 3.83-4.073 4.143-6.06l-.706-.715c-.289 1.714-1.119 3.138-2.285 4.298.128-.4.209-.815.239-1.234.015-.244.018-.487.01-.73.473-.822.939-2.265.929-3.424l-.77-.729c.04.712-.21 1.6-.503 2.08-.483-1.797-1.932-4.084-4.09-5.801l-.572.569c.764.788 2.075 2.21 2.609 3.268-1.825-.555-3.752-.75-5.126-.761l-.82.815c2.653.09 5.36.964 6.717 1.625.268.762.396 1.59.396 2.198 0 1.781-.568 3.178-2.56 4.208.398-.916.58-1.948.653-2.947l-.746-.744c-.018.86-.739 3.353-1.796 4.326l-1.803.403c1.016-1.844 1.815-4.402 1.96-6.36l-.754-.753c-.107 1.699-1.543 5.206-3.014 7.234-.261.334-.524.62-.78.841-.011-.008 2.333 2.45 2.333 2.45h-1.249c-.723 0-1.148.042-1.616.593l-.255.296c-.298.424-.86.762-1.346.762-.808 0-1.318-.687-1.376-1.1h2.169l.425-.467v-.084c-.832 0-.858-.89-1.829-.89-.425 0-.85.17-1.148.466v-.847c.383-.297 1.106-.55 2.127-.55h1.233l-.68-.679s-1.74-.444-1.892-.484c.049-.153.527-1.687.527-3.176 0-2.182-.66-4.323-1.603-6.275l-.68.681c.374 1.034.958 2.906.958 4.96 0 1.13-.24 2.25-.658 3.298-1.696-1.266-3.727-4.02-3.954-8.056l-.799.796c.056 3.148 1.498 5.837 2.205 6.72-.98-.257-3.752-.973-4.822-1.248-.551-.47-1.613-1.958-1.965-3.679l-.71.707c.105.831.487 1.886.792 2.495a23.234 23.234 0 0 1-1.024-.285 10.384 10.384 0 0 1-1.953-2.485l.008.003c.736-3.048 4.117-5.228 6.175-5.66l-.677-.675c-2.495.65-4.998 2.295-6.237 4.654-.344-1.038-.53-2.128-.606-3.22A33.534 33.534 0 0 1 30.923.43l-.86.857c-.014.314-.027.629-.03.945-.038 3.635.853 5.684 1.756 7.123-1.912-.825-3.511-2.614-3.707-4.871l-.75.748c.16 2.358 2.204 4.211 3.55 4.99 1.459.844 3.058 1.39 4.68 1.813 2.168.624 5.532 1.585 8.11 2.325v1.524l-.019.003c-.24-.717-1.063-1-1.725-1.083l-3.062-.339c.213 2.203 1.659 3.686 3.913 3.982-.936 2.923-2 7.243-2 10.208 0 1.61.298 3.346.596 4.151.34.975.425 2.118.213 3.389-.128.72-.383 1.948-.553 2.88-.213 1.186-.333 2.633.213 4.151 1.439 4.003 3.147 3.304 3.402 5.592l.808 7.2-7.23-.762L37.42 60h44.826l.085-1.737-11.27-1.27Zm-22.54-8.005 2.424.677-2.254 4.575-.17-5.252Zm6.081 6.269-.297 1.736-3.488-.38 4.296-5.677 1.998.593c.894.297 2.212.55 3.743.55h1.02c.724 2.33 1.872 2.966 2.723 4.237l-9.995-1.06Z"/></g></svg>